# xmcd CD database file
#
# Track frame offsets:
#	150
#	10615
#	27055
#	40176
#	51928
#	70895
#	83264
#	94117
#	108373
#	119935
#	132510
#	148811
#	161566
#	175118
#	187996
#	203214
#	249961
#	277051
#	293213
#	315860
#	328008
#
# Disc length: 4575 seconds
#
# Revision: 0
# Processed by: cddbd v1.5.1PL2 Copyright (c) Steve Scherf et al.
# Submitted via: CDex 1.51
#
DISCID=2611dd15
DTITLE=Nina SImone - The Very Best Of
DYEAR=1900
DGENRE=Jazz
TTITLE0=Nina Simone - Ain't Got No, I Got Life
TTITLE1=Nina Simone - My Baby Just Cares For Me
TTITLE2=Nina Simone - Feelking Good
TTITLE3=Nina Simone - I Put A Spell On You
TTITLE4=Nina Simone - I Loves Ya Porgy
TTITLE5=Nina Simone - Don't Let me Be Misunderstood
TTITLE6=Nina Simone - The Look Of Love
TTITLE7=Nina Simone - I Wish I Knew How It Would Fee
TTITLE8=Nina Simone - I Want A Little Sugar In My Bo
TTITLE9=Nina Simone - Do I Move You
TTITLE10=Nina Simone - Do What You Gotta Do
TTITLE11=Nina Simone - To Be Young Gifted And Black
TTITLE12=Nina Simone - Nobody's Fault But Mine
TTITLE13=Nina Simone - Since I Fell For You
TTITLE14=Nina Simone - I Think It's Going To Rain Tod
TTITLE15=Nina Simone - Sinner Mam
TTITLE16=Nina Simone - Times They Are A Changing
TTITLE17=Nina Dimone - Here COmes The Sun
TTITLE18=Nina Simone - Mr. Bojangles
TTITLE19=Nina Simone - To Love Somebody
TTITLE20=Nina Simone - Ain't Got No I Got Life
EXTD=
EXTT0=
EXTT1=
EXTT2=
EXTT3=
EXTT4=
EXTT5=
EXTT6=
EXTT7=
EXTT8=
EXTT9=
EXTT10=
EXTT11=
EXTT12=
EXTT13=
EXTT14=
EXTT15=
EXTT16=
EXTT17=
EXTT18=
EXTT19=
EXTT20=
PLAYORDER=
